<svg width="22" height="20" viewBox="0 0 22 20" fill="none" xmlns="http://www.w3.org/2000/svg">
<path d="M11.22 17.85C11.04 18.03 10.72 18.06 10.51 17.85C10.33 17.67 10.3 17.35 10.51 17.14L13.9 13.75L12.49 12.34L9.1 15.73C8.91 15.93 8.59 15.92 8.39 15.73C8.18 15.52 8.21 15.2 8.39 15.02L11.78 11.63L10.37 10.22L6.98 13.61C6.8 13.79 6.48 13.82 6.27 13.61C6.08 13.42 6.08 13.1 6.27 12.9L9.66 9.51L8.24 8.1L4.85 11.49C4.67 11.67 4.35 11.7 4.14 11.49C3.95 11.29 3.95 10.98 4.14 10.78L8.52 6.4L10.39 8.26C11.34 9.21 12.98 9.2 13.93 8.26C14.91 7.28 14.91 5.7 13.93 4.72L12.07 2.86L12.35 2.58C13.13 1.8 14.4 1.8 15.18 2.58L19.42 6.82C20.2 7.6 20.2 8.87 19.42 9.65L11.22 17.85ZM20.83 11.07C22.39 9.51 22.39 6.98 20.83 5.41L16.59 1.17C15.03 -0.39 12.5 -0.39 10.93 1.17L10.65 1.45L10.37 1.17C8.81 -0.39 6.28 -0.39 4.71 1.17L1.17 4.71C-0.25 6.13 -0.38 8.34 0.77 9.9L2.22 8.45C1.83 7.7 1.96 6.75 2.59 6.12L6.13 2.58C6.91 1.8 8.18 1.8 8.96 2.58L12.52 6.14C12.7 6.32 12.73 6.64 12.52 6.85C12.31 7.06 11.99 7.03 11.81 6.85L8.52 3.57L2.72 9.36C1.74 10.33 1.74 11.92 2.72 12.9C3.11 13.29 3.61 13.53 4.14 13.6C4.21 14.12 4.44 14.62 4.84 15.02C5.24 15.42 5.74 15.65 6.26 15.72C6.33 16.24 6.56 16.74 6.96 17.14C7.36 17.54 7.86 17.77 8.38 17.84C8.45 18.38 8.69 18.87 9.08 19.26C9.55 19.73 10.18 19.99 10.85 19.99C11.52 19.99 12.15 19.73 12.62 19.26L20.83 11.07Z" fill="black"/>
</svg>
