<svg width="16" height="17" viewBox="0 0 16 17" fill="none" xmlns="http://www.w3.org/2000/svg">
    <path
        d="M8 16.8999C7.06667 16.8999 6.18767 16.7539 5.363 16.4619C4.53767 16.1706 3.78333 15.7582 3.1 15.2249L1.7 16.5999C1.51667 16.7832 1.28333 16.8749 1 16.8749C0.716667 16.8749 0.483334 16.7832 0.3 16.5999C0.116667 16.4166 0.0250001 16.1832 0.0250001 15.8999C0.0250001 15.6166 0.116667 15.3832 0.3 15.1999L1.675 13.8249C1.14167 13.1416 0.729334 12.3832 0.438 11.5499C0.146 10.7166 0 9.83323 0 8.8999C0 6.66657 0.775 4.7749 2.325 3.2249C3.875 1.6749 5.76667 0.899902 8 0.899902H16V8.8999C16 11.1332 15.225 13.0249 13.675 14.5749C12.125 16.1249 10.2333 16.8999 8 16.8999ZM8 14.8999C9.66667 14.8999 11.0833 14.3166 12.25 13.1499C13.4167 11.9832 14 10.5666 14 8.8999V2.8999H8C6.33333 2.8999 4.91667 3.48324 3.75 4.6499C2.58333 5.81657 2 7.23324 2 8.8999C2 9.5499 2.1 10.1706 2.3 10.7619C2.5 11.3539 2.775 11.8916 3.125 12.3749L8.3 7.1999C8.48333 7.01657 8.71667 6.9249 9 6.9249C9.28333 6.9249 9.51667 7.01657 9.7 7.1999C9.9 7.3999 10 7.63724 10 7.9119C10 8.18724 9.9 8.4249 9.7 8.6249L4.525 13.7999C5.00833 14.1499 5.54567 14.4206 6.137 14.6119C6.729 14.8039 7.35 14.8999 8 14.8999Z"
        fill="#2D6A4F" />
</svg>