<svg width="22" height="22" viewBox="0 0 22 22" fill="none" xmlns="http://www.w3.org/2000/svg">
<path d="M20.9753 5.60003C20.9642 6.37096 20.7676 7.12788 20.4021 7.80674C20.0365 8.4856 19.5128 9.06641 18.8753 9.50002V20.45H3.35029V9.50002C2.69867 9.08095 2.16415 8.50326 1.79684 7.82112C1.42954 7.13898 1.24148 6.37472 1.2503 5.60003C1.24926 4.81637 1.4401 4.04438 1.80616 3.35147C2.17222 2.65857 2.70236 2.06583 3.35029 1.62502C3.7842 1.37727 4.27562 1.24795 4.77528 1.25002H17.3753C17.875 1.24795 18.3664 1.37727 18.8003 1.62502H18.8753C19.5099 2.07905 20.0301 2.67463 20.3946 3.36458C20.7591 4.05454 20.9579 4.8199 20.9753 5.60003Z" stroke="#212529" stroke-width="1.5" stroke-linecap="round" stroke-linejoin="round"/>
<path d="M6.50049 5.90002L7.10048 4.92502" stroke="#212529" stroke-width="1.5" stroke-linecap="round" stroke-linejoin="round"/>
<path d="M11.7502 9.72503L11.0752 8.75003" stroke="#212529" stroke-width="1.5" stroke-linecap="round" stroke-linejoin="round"/>
<path d="M14.7505 5.97504L15.0505 4.85004" stroke="#212529" stroke-width="1.5" stroke-linecap="round" stroke-linejoin="round"/>
<path d="M12.8755 15.35L13.8505 14.75" stroke="#212529" stroke-width="1.5" stroke-linecap="round" stroke-linejoin="round"/>
<path d="M8.30029 14.75V13.55" stroke="#212529" stroke-width="1.5" stroke-linecap="round" stroke-linejoin="round"/>
</svg>
