<svg width="19" height="26" viewBox="0 0 19 26" fill="none" xmlns="http://www.w3.org/2000/svg">
<path d="M13.5786 24.9985H5.717C5.11654 24.9989 4.53938 24.7661 4.10714 24.3493C3.6749 23.9325 3.42136 23.3642 3.39992 22.7641L3.06888 12.089C3.05795 11.2196 3.2184 10.3565 3.54104 9.5491C3.86367 8.7417 4.34219 8.00579 4.94927 7.38334C5.55635 6.76089 6.28009 6.26411 7.07917 5.92139C7.87825 5.57868 8.73701 5.39672 9.60642 5.38593C10.4719 5.38586 11.3288 5.55766 12.1275 5.89137C12.9261 6.22507 13.6505 6.71404 14.2587 7.3299C14.8668 7.94576 15.3466 8.67625 15.6702 9.47899C15.9939 10.2817 16.1549 11.1407 16.144 12.0062L15.8956 22.7641C15.8959 23.0646 15.8354 23.3621 15.718 23.6387C15.6006 23.9154 15.4286 24.1654 15.2123 24.374C14.9959 24.5826 14.7397 24.7455 14.459 24.8528C14.1783 24.96 13.8789 25.0096 13.5786 24.9985Z" stroke="#212529" stroke-width="1.5" stroke-miterlimit="10"/>
<path d="M1 12.2545H18.2127" stroke="#212529" stroke-width="1.5" stroke-linecap="round" stroke-linejoin="round"/>
<path d="M9.60629 18.9575L9.02701 1H4.31006" stroke="#212529" stroke-width="1.5" stroke-linecap="round" stroke-linejoin="round"/>
</svg>
