<svg width="29" height="29" viewBox="0 0 29 29" fill="none" xmlns="http://www.w3.org/2000/svg">
<path d="M22.4002 1L27.8002 6.4L25.9002 8.4C25.4329 8.85143 25.0665 9.39674 24.8252 10C24.5839 10.6033 24.4731 11.2508 24.5002 11.9C24.5002 14.3 24.0002 18.1 21.0002 20.6C18.2932 22.6378 15.0737 23.8841 11.7002 24.2C10.6256 24.3985 9.62405 24.882 8.80023 25.6L6.7002 27.8" stroke="#212529" stroke-width="1.5" stroke-linecap="round" stroke-linejoin="round"/>
<path d="M6.70001 27.8L1 22.1L4.60004 18.6C5.37169 17.8064 6.39863 17.3106 7.5 17.2C9.4 17 12.4 16.4 14.3 14.7C16.2 13 17 9.3 17.4 7.2C17.5984 6.18445 18.0843 5.24728 18.8 4.5L22.4 1" stroke="#212529" stroke-width="1.5" stroke-linecap="round" stroke-linejoin="round"/>
<path d="M7 22.1C8.00448 21.17 9.25332 20.5456 10.6 20.3C12.5 20.1 15.5 19.5 17.4 17.7C19.3 15.9 20.1 12.4 20.5 10.3C20.873 9.09881 21.5239 8.00248 22.4 7.10001" stroke="#212529" stroke-width="1.5" stroke-linecap="round" stroke-linejoin="round"/>
</svg>
