<svg width="21" height="23" viewBox="0 0 21 23" fill="none" xmlns="http://www.w3.org/2000/svg">
<path d="M9.60781 12.1891C11.596 12.1891 13.2078 10.5774 13.2078 8.58915C13.2078 6.60092 11.596 4.98914 9.60781 4.98914C7.61959 4.98914 6.00781 6.60092 6.00781 8.58915C6.00781 10.5774 7.61959 12.1891 9.60781 12.1891Z" stroke="#212529" stroke-width="1.5" stroke-miterlimit="10"/>
<path d="M19.583 11.2892C19.593 12.6019 19.3418 13.9035 18.844 15.1182C18.3463 16.3329 17.6119 17.4365 16.6836 18.3648C15.7554 19.2931 14.6518 20.0274 13.437 20.5252C12.2223 21.0229 10.9207 21.2741 9.60799 21.2642H9.45799C8.25918 21.2405 7.10345 20.8129 6.17787 20.0507C5.2523 19.2885 4.61107 18.2362 4.35799 17.0641C3.96763 15.4612 3.25293 13.9552 2.25799 12.6392C1.20697 11.1463 0.790474 9.29766 1.09974 7.49828C1.40901 5.69891 2.41882 4.09547 3.90799 3.03916C5.40817 1.99451 7.16659 1.38218 8.99117 1.2691C10.8157 1.15603 12.6363 1.54653 14.254 2.39795C15.8717 3.24937 17.2243 4.52897 18.1641 6.09698C19.1039 7.66499 19.5947 9.46112 19.583 11.2892Z" stroke="#212529" stroke-width="1.5" stroke-miterlimit="10"/>
</svg>
