<svg width="18" height="23" viewBox="0 0 18 23" fill="none" xmlns="http://www.w3.org/2000/svg">
<path d="M9.52559 21.8988C9.48663 21.9963 9.41937 22.0798 9.33247 22.1387C9.24557 22.1975 9.14303 22.229 9.03809 22.229C8.93314 22.229 8.8306 22.1975 8.7437 22.1387C8.6568 22.0798 8.58954 21.9963 8.55059 21.8988L6.67559 17.3238L4.35059 11.5488H13.7256L11.4006 17.3238L9.52559 21.8988Z" stroke="#212529" stroke-width="1.5" stroke-linecap="round" stroke-linejoin="round"/>
<path d="M16.5754 9.14882C16.5452 9.73744 16.3058 10.2959 15.9004 10.7238C15.4805 11.1411 14.9172 11.3825 14.3254 11.3988H3.67545C3.0918 11.3794 2.53859 11.1337 2.13272 10.7139C1.72685 10.294 1.50012 9.73279 1.50045 9.14882C1.48883 8.56591 1.70394 8.00125 2.10045 7.57381C2.30359 7.36052 2.54794 7.1907 2.81867 7.07467C3.08941 6.95864 3.38089 6.89882 3.67545 6.89882H4.27545C4.1905 6.22324 4.25026 5.53732 4.45076 4.8866C4.65125 4.23589 4.9879 3.63527 5.43834 3.12465C5.88878 2.61403 6.4427 2.20508 7.06331 1.92496C7.68393 1.64485 8.35704 1.5 9.03795 1.5C9.71885 1.5 10.392 1.64485 11.0126 1.92496C11.6332 2.20508 12.1871 2.61403 12.6376 3.12465C13.088 3.63527 13.4246 4.23589 13.6251 4.8866C13.8256 5.53732 13.8854 6.22324 13.8004 6.89882H14.3254C14.9222 6.89882 15.4945 7.13588 15.9164 7.55784C16.3384 7.9798 16.5754 8.55208 16.5754 9.14882Z" stroke="#212529" stroke-width="1.5" stroke-linecap="round" stroke-linejoin="round"/>
</svg>
