<svg width="23" height="22" viewBox="0 0 23 22" fill="none" xmlns="http://www.w3.org/2000/svg">
<path d="M21.825 12.05C21.5375 14.5995 20.2997 16.9471 18.3584 18.6246C16.4172 20.3021 13.9149 21.1865 11.3507 21.1013C8.78642 21.0162 6.34845 19.9678 4.52275 18.1651C2.69705 16.3625 1.61774 13.938 1.5 11.375C1.51273 10.8472 1.56286 10.3208 1.65001 9.80003C1.69704 10.5519 1.9999 11.2651 2.50829 11.821C3.01668 12.377 3.69997 12.7422 4.44466 12.8561C5.18934 12.97 5.95058 12.8256 6.60189 12.4471C7.25321 12.0685 7.7554 11.4785 8.02501 10.775C8.10838 10.6113 8.1593 10.4331 8.175 10.25C8.40725 9.42126 8.92305 8.70029 9.63242 8.21285C10.3418 7.72541 11.1997 7.50242 12.0567 7.58276C12.9136 7.6631 13.7152 8.04167 14.3216 8.65246C14.928 9.26326 15.3008 10.0675 15.375 10.925V11.6C15.4685 12.4019 15.8594 13.1396 16.4704 13.6672C17.0814 14.1949 17.8681 14.4742 18.675 14.45C19.3922 14.4572 20.0913 14.2251 20.6618 13.7904C21.2322 13.3558 21.6415 12.7434 21.825 12.05Z" stroke="#212529" stroke-width="1.5" stroke-linecap="round" stroke-linejoin="round"/>
<path d="M15.3752 11.375V11.6C15.3364 12.5485 14.9322 13.4451 14.2472 14.1022C13.5621 14.7593 12.6494 15.1258 11.7002 15.125C10.7056 15.125 9.75179 14.7299 9.04853 14.0267C8.34527 13.3234 7.9502 12.3696 7.9502 11.375C7.9502 11.15 8.0252 11 8.0252 10.775C8.10857 10.6113 8.15949 10.4331 8.17519 10.25C8.40744 9.42126 8.92324 8.70029 9.63261 8.21285C10.342 7.72541 11.1999 7.50242 12.0569 7.58276C12.9138 7.6631 13.7154 8.04167 14.3218 8.65246C14.9282 9.26326 15.301 10.0675 15.3752 10.925V11.375Z" stroke="#212529" stroke-width="1.5" stroke-linecap="round" stroke-linejoin="round"/>
<path d="M21.8249 11.375V12.05C21.6414 12.7434 21.2321 13.3558 20.6617 13.7904C20.0912 14.2251 19.3921 14.4572 18.6749 14.45C17.868 14.4742 17.0812 14.1949 16.4703 13.6672C15.8593 13.1395 15.4684 12.4019 15.3749 11.6V10.925C15.3007 10.0675 14.9279 9.26323 14.3215 8.65244C13.7151 8.04164 12.9135 7.66308 12.0566 7.58274C11.1996 7.5024 10.3417 7.72539 9.63232 8.21283C8.92294 8.70027 8.40715 9.42124 8.17489 10.25C8.09989 10.4 8.0999 10.625 8.0249 10.775C7.7553 11.4784 7.2531 12.0685 6.60178 12.447C5.95047 12.8256 5.18924 12.97 4.44455 12.8561C3.69986 12.7422 3.01657 12.3769 2.50819 11.821C1.9998 11.265 1.69693 10.5519 1.6499 9.80001C1.73094 9.24093 1.85634 8.68918 2.0249 8.15C2.72412 6.13935 4.03056 4.3955 5.76371 3.15946C7.49686 1.92341 9.57115 1.25621 11.6999 1.25001C14.154 1.24628 16.5259 2.134 18.3746 3.7481C20.2232 5.3622 21.4227 7.59278 21.7499 10.025C21.8121 10.4722 21.8372 10.9237 21.8249 11.375Z" stroke="#212529" stroke-width="1.5" stroke-linecap="round" stroke-linejoin="round"/>
<path d="M5.1748 9.65003L6.07481 8.60004" stroke="#212529" stroke-width="1.5" stroke-linecap="round" stroke-linejoin="round"/>
<path d="M8.77512 6.42504L7.7251 5.60004" stroke="#212529" stroke-width="1.5" stroke-linecap="round" stroke-linejoin="round"/>
<path d="M17.0251 6.65002L15.9751 5.82501" stroke="#212529" stroke-width="1.5" stroke-linecap="round" stroke-linejoin="round"/>
<path d="M11.7749 5.07502L12.5999 4.02502" stroke="#212529" stroke-width="1.5" stroke-linecap="round" stroke-linejoin="round"/>
<path d="M18.2251 10.4L19.1251 9.35004" stroke="#212529" stroke-width="1.5" stroke-linecap="round" stroke-linejoin="round"/>
</svg>
