<svg width="22" height="22" viewBox="0 0 22 22" fill="none" xmlns="http://www.w3.org/2000/svg">
<path d="M11.5566 8L14.7816 4.775C14.401 4.39805 14.1853 3.88566 14.1816 3.35C14.2003 2.79899 14.4276 2.27565 14.8174 1.8858C15.2073 1.49595 15.7306 1.26869 16.2816 1.25C16.8255 1.26944 17.3406 1.49924 17.7183 1.89098C18.0961 2.28272 18.307 2.8058 18.3066 3.35C18.6597 3.33071 19.0118 3.40084 19.3305 3.55391C19.6492 3.70698 19.9241 3.93803 20.1297 4.22564C20.3353 4.51324 20.4649 4.8481 20.5066 5.19917C20.5483 5.55024 20.5007 5.90616 20.3682 6.23392C20.2357 6.56169 20.0226 6.85071 19.7486 7.07417C19.4747 7.29764 19.1487 7.44832 18.801 7.51225C18.4533 7.57619 18.0951 7.5513 17.7596 7.4399C17.424 7.32851 17.1221 7.1342 16.8816 6.875L13.6566 10.175" stroke="#212529" stroke-width="1.5" stroke-linecap="round" stroke-linejoin="round"/>
<path d="M12.6069 14.6C12.6581 15.9078 12.2518 17.1925 11.4578 18.2329C10.6638 19.2734 9.53182 20.0044 8.25686 20.3C7.37054 20.5088 6.4471 20.5022 5.56386 20.2807C4.68062 20.0593 3.86328 19.6295 3.18028 19.0273C2.49728 18.425 1.9685 17.668 1.6382 16.8194C1.30791 15.9708 1.18572 15.0555 1.28186 14.15C1.41175 12.7638 2.05113 11.475 3.07631 10.5329C4.1015 9.59088 5.43963 9.06251 6.83186 9.05001C7.92317 8.99525 8.94816 8.50972 9.68186 7.70001L10.5069 6.95001L14.4819 10.925L13.9569 11.525C13.5324 11.9171 13.1934 12.3926 12.9611 12.9217C12.7289 13.4508 12.6082 14.0222 12.6069 14.6Z" stroke="#212529" stroke-width="1.5" stroke-linecap="round" stroke-linejoin="round"/>
</svg>
