<svg width="20" height="24" viewBox="0 0 20 24" fill="none" xmlns="http://www.w3.org/2000/svg">
<path d="M9.85002 15.6369C9.86339 15.9911 9.91367 16.343 10 16.6869C10.3145 17.7358 10.2068 18.8662 9.70001 19.8369C9.29099 20.5759 8.69421 21.1939 7.96994 21.6284C7.24567 22.063 6.41955 22.2987 5.57501 22.3119C4.73989 22.3011 3.92308 22.0656 3.21043 21.63C2.49778 21.1945 1.91557 20.5751 1.52499 19.8369C1.02831 18.8652 0.895313 17.748 1.14999 16.6869L1.37503 15.6369C2.27503 10.7619 2.27503 13.0869 1.37503 8.21189L1.14999 7.2369C0.972264 6.56004 0.952197 5.85141 1.09131 5.16557C1.23042 4.47972 1.525 3.83494 1.95241 3.28082C2.37981 2.72669 2.92866 2.27801 3.55668 1.96928C4.18471 1.66055 4.8752 1.5 5.57501 1.5C6.27482 1.5 6.96531 1.66055 7.59334 1.96928C8.22136 2.27801 8.7702 2.72669 9.19761 3.28082C9.62502 3.83494 9.9196 4.47972 10.0587 5.16557C10.1978 5.85141 10.1778 6.56004 10 7.2369C9.91384 7.55529 9.86352 7.88232 9.85002 8.21189C8.95002 12.9369 8.95002 10.9869 9.85002 15.6369Z" stroke="#212529" stroke-width="1.5" stroke-linecap="round" stroke-linejoin="round"/>
<path d="M13.9752 16.3118C15.0483 15.7656 15.994 14.9989 16.7502 14.0618C19.1502 11.4368 19.6752 8.13685 18.1002 6.71185C16.5252 5.28685 14.4252 6.11185 12.3252 7.83685" stroke="#212529" stroke-width="1.5" stroke-linecap="round" stroke-linejoin="round"/>
<path d="M18.3999 7.31189L12.7749 12.1869" stroke="#212529" stroke-width="1.5" stroke-linecap="round" stroke-linejoin="round"/>
</svg>
