<svg width="23" height="23" viewBox="0 0 23 23" fill="none" xmlns="http://www.w3.org/2000/svg">
<path d="M11.7 21.9C17.3333 21.9 21.9 17.3333 21.9 11.7C21.9 6.0667 17.3333 1.5 11.7 1.5C6.06668 1.5 1.5 6.0667 1.5 11.7C1.5 17.3333 6.06668 21.9 11.7 21.9Z" stroke="#212529" stroke-width="1.5" stroke-linecap="round" stroke-linejoin="round"/>
<path d="M15.2251 17.775C16.0535 17.775 16.7251 17.1035 16.7251 16.275C16.7251 15.4466 16.0535 14.775 15.2251 14.775C14.3967 14.775 13.7251 15.4466 13.7251 16.275C13.7251 17.1035 14.3967 17.775 15.2251 17.775Z" fill="#212529"/>
<path d="M6.5249 14.775C7.35333 14.775 8.0249 14.1035 8.0249 13.275C8.0249 12.4466 7.35333 11.775 6.5249 11.775C5.69648 11.775 5.0249 12.4466 5.0249 13.275C5.0249 14.1035 5.69648 14.775 6.5249 14.775Z" fill="#212529"/>
<path d="M13.2749 7.5C14.1033 7.5 14.7749 6.82843 14.7749 6C14.7749 5.17157 14.1033 4.5 13.2749 4.5C12.4465 4.5 11.7749 5.17157 11.7749 6C11.7749 6.82843 12.4465 7.5 13.2749 7.5Z" fill="#212529"/>
<path d="M13.275 12.6C13.7721 12.6 14.175 12.1971 14.175 11.7C14.175 11.2029 13.7721 10.8 13.275 10.8C12.778 10.8 12.375 11.2029 12.375 11.7C12.375 12.1971 12.778 12.6 13.275 12.6Z" fill="#212529"/>
<path d="M17.3248 11.025C17.8219 11.025 18.2248 10.6221 18.2248 10.125C18.2248 9.62797 17.8219 9.22504 17.3248 9.22504C16.8278 9.22504 16.4248 9.62797 16.4248 10.125C16.4248 10.6221 16.8278 11.025 17.3248 11.025Z" fill="#212529"/>
<path d="M9.75011 17.775C10.2472 17.775 10.6501 17.3721 10.6501 16.875C10.6501 16.378 10.2472 15.975 9.75011 15.975C9.25305 15.975 8.8501 16.378 8.8501 16.875C8.8501 17.3721 9.25305 17.775 9.75011 17.775Z" fill="#212529"/>
<path d="M7.87511 9.3C8.37216 9.3 8.77512 8.89707 8.77512 8.40001C8.77512 7.90295 8.37216 7.5 7.87511 7.5C7.37805 7.5 6.9751 7.90295 6.9751 8.40001C6.9751 8.89707 7.37805 9.3 7.87511 9.3Z" fill="#212529"/>
</svg>
