<svg width="24" height="24" viewBox="0 0 24 24" fill="none" xmlns="http://www.w3.org/2000/svg">
<path d="M9.99975 18.5C9.33308 17.1667 7.65514 14.3336 11.4072 12.5C15.4998 10.5 14.4998 8 14.4998 7" stroke="black" stroke-width="1.5" stroke-linecap="square"/>
<path d="M7.68971 20.6315C9.596 21.6012 11.7958 21.421 13.7686 20.4512C15.7411 19.4816 17.5341 17.7065 18.7191 15.377C19.9041 13.0475 20.283 10.553 19.9052 8.3878C19.5273 6.22229 18.3776 4.33818 16.4713 3.36847C14.565 2.39875 12.3652 2.57898 10.3924 3.54875C8.41993 4.51841 6.62693 6.29347 5.44191 8.623C4.2569 10.9525 3.87805 13.447 4.25585 15.6122C4.63371 17.7777 5.78342 19.6618 7.68971 20.6315Z" stroke="black" stroke-width="1.5"/>
</svg>
