<svg width="17" height="23" viewBox="0 0 17 23" fill="none" xmlns="http://www.w3.org/2000/svg">
<path d="M12.9 5.69998C12.8801 7.75479 13.4814 9.7677 14.625 11.475C15.4126 12.6785 15.8299 14.0867 15.825 15.525C15.6433 17.2982 14.8103 18.941 13.4872 20.1354C12.1641 21.3299 10.445 21.9911 8.66249 21.9911C6.87999 21.9911 5.16087 21.3299 3.83778 20.1354C2.51468 18.941 1.68169 17.2982 1.5 15.525C1.52171 14.0797 1.96482 12.6721 2.77499 11.475C3.91858 9.7677 4.51985 7.75479 4.5 5.69998C4.5 4.58607 4.9425 3.5178 5.73015 2.73015C6.5178 1.9425 7.5861 1.5 8.7 1.5C9.81391 1.5 10.8822 1.9425 11.6698 2.73015C12.4575 3.5178 12.9 4.58607 12.9 5.69998Z" stroke="#212529" stroke-width="1.5" stroke-miterlimit="10"/>
<path d="M8.69992 18.825C10.3154 18.825 11.6249 17.5154 11.6249 15.9C11.6249 14.2846 10.3154 12.975 8.69992 12.975C7.08449 12.975 5.7749 14.2846 5.7749 15.9C5.7749 17.5154 7.08449 18.825 8.69992 18.825Z" stroke="#212529" stroke-width="1.5" stroke-miterlimit="10"/>
</svg>
